HIERARCHY
ROOT Hips
{
	OFFSET -3.958830 18.904000 13.208200
	CHANNELS 6 Xposition Yposition Zposition Zrotation Yrotation Xrotation 
	JOINT LHipJoint
	{
		OFFSET 0.000000 0.000000 0.000000
		CHANNELS 3 Zrotation Yrotation Xrotation
		JOINT LeftUpLeg
		{
			OFFSET 1.800000 -1.400000 0.085000
			CHANNELS 3 Zrotation Yrotation Xrotation
			JOINT LeftLeg
			{
				OFFSET 2.215000 -6.000000 0.000000
				CHANNELS 3 Zrotation Yrotation Xrotation
				JOINT LeftFoot
				{
					OFFSET 2.500000 -6.900000 0.000000
					CHANNELS 3 Zrotation Yrotation Xrotation
					JOINT LeftToeBase
					{
						OFFSET 0.200000 -0.500000 1.950000
						CHANNELS 3 Zrotation Yrotation Xrotation
						End Site
						{
							OFFSET 0.000000 0.000000 0.000000
						}
					}
				}
			}
		}
	}
	JOINT RHipJoint
	{
		OFFSET 0.000000 0.000000 0.000000
		CHANNELS 3 Zrotation Yrotation Xrotation
		JOINT RightUpLeg
		{
			OFFSET -1.800000 -1.400000 0.085000
			CHANNELS 3 Zrotation Yrotation Xrotation
			JOINT RightLeg
			{
				OFFSET -2.215000 -6.000000 0.000000
				CHANNELS 3 Zrotation Yrotation Xrotation
				JOINT RightFoot
				{
					OFFSET -2.500000 -6.900000 0.000000
					CHANNELS 3 Zrotation Yrotation Xrotation
					JOINT RightToeBase
					{
						OFFSET -0.200000 -0.500000 1.950000
						CHANNELS 3 Zrotation Yrotation Xrotation
						End Site
						{
							OFFSET 0.000000 0.000000 0.000000
						}
					}
				}
			}
		}
	}
	JOINT LowerBack
	{
		OFFSET 0.000000 0.000000 0.000000
		CHANNELS 3 Zrotation Yrotation Xrotation
		JOINT Spine
		{
			OFFSET -0.087000 1.940000 -0.288900
			CHANNELS 3 Zrotation Yrotation Xrotation
			JOINT Spine1
			{
				OFFSET 0.000000 1.950000 0.060000
				CHANNELS 3 Zrotation Yrotation Xrotation
				JOINT Neck
				{
					OFFSET 0.000000 0.000000 0.000000
					CHANNELS 3 Zrotation Yrotation Xrotation
					JOINT Neck1
					{
						OFFSET 0.000000 1.600000 0.340000
						CHANNELS 3 Zrotation Yrotation Xrotation
						JOINT Head
						{
							OFFSET 0.000000 1.667000 -0.240000
							CHANNELS 3 Zrotation Yrotation Xrotation
							End Site
							{
								OFFSET 0.000000 0.000000 0.000000
							}
						}
					}
				}
				JOINT LeftShoulder
				{
					OFFSET 0.000000 0.000000 0.000000
					CHANNELS 3 Zrotation Yrotation Xrotation
					JOINT LeftArm
					{
						OFFSET 2.700000 1.550000 -0.730000
						CHANNELS 3 Zrotation Yrotation Xrotation
						JOINT LeftForeArm
						{
							OFFSET 5.450000 0.000000 0.000000
							CHANNELS 3 Zrotation Yrotation Xrotation
							JOINT LeftHand
							{
								OFFSET 3.450000 0.000000 0.000000
								CHANNELS 3 Zrotation Yrotation Xrotation
								JOINT LeftHandIndex1
								{
									OFFSET 0.750000 0.000000 0.000000
									CHANNELS 3 Zrotation Yrotation Xrotation
									End Site
									{
										OFFSET 0.000000 0.000000 0.000000
									}
								}
							}
						}
					}
				}
				JOINT RightShoulder
				{
					OFFSET 0.000000 0.000000 0.000000
					CHANNELS 3 Zrotation Yrotation Xrotation
					JOINT RightArm
					{
						OFFSET -2.700000 1.550000 -0.730000
						CHANNELS 3 Zrotation Yrotation Xrotation
						JOINT RightForeArm
						{
							OFFSET -5.450000 0.000000 0.000000
							CHANNELS 3 Zrotation Yrotation Xrotation
							JOINT RightHand
							{
								OFFSET -3.450000 0.000000 0.000000
								CHANNELS 3 Zrotation Yrotation Xrotation
								JOINT RightHandIndex1
								{
									OFFSET -0.750000 0.000000 0.000000
									CHANNELS 3 Zrotation Yrotation Xrotation
									End Site
									{
										OFFSET 0.000000 0.000000 0.000000
									}
								}
							}
						}
					}
				}
			}
		}
	}
}
MOTION
Frames: 4
Frame Time: 0.016667
0.487330 17.871060 -1.054340 -16.249543 4.947919 -5.361176 -14.649980 11.692505 1.167000 10.971998 -0.936014 -9.270328 -3.572240 5.755133 14.530735 -0.049038 4.069538 3.464243 0.060760 -0.328320 0.070410 19.321856 -8.507328 6.314706 8.564518 25.434437 -46.421315 1.767581 -23.073252 98.551854 -3.282098 -16.298954 -0.386900 -0.277150 0.460430 0.146470 -5.792286 -0.228999 -8.461971 34.201087 -8.551696 11.634600 -19.651523 -3.185108 0.439745 6.824237 -8.919485 -6.228606 -18.216669 4.886739 43.930587 -2.484120 -6.669510 6.072470 -18.900418 11.080268 -3.793481 -62.577958 -1.620033 -6.066325 -6.713966 -11.708116 -0.845281 -3.794272 2.677684 0.312800 0.101360 -0.134020 0.277510 3.022966 -5.518427 6.264912 49.738444 -6.916624 -22.722022 119.370469 87.867954 122.067801 1.403282 1.120180 -0.173880 0.175790 -0.056490 0.081980 
0.457260 17.860250 -1.048820 -15.551364 3.311374 -4.763362 -14.647942 11.740120 1.318468 10.779097 -0.998959 -9.746589 -3.979147 5.527223 12.878230 -0.161736 3.978680 3.531336 0.040050 -0.367190 0.076120 19.275306 -8.666997 6.104010 8.875892 24.333550 -42.835395 4.106173 -24.104296 95.837467 -3.249187 -16.101504 -0.309451 -0.260240 0.501090 0.074400 -5.735293 -0.232283 -8.432119 32.725403 -7.822078 11.809223 -19.242050 -2.612569 0.382538 6.612210 -8.846865 -6.637086 -17.956989 5.242739 43.334262 -1.243420 -6.318210 4.551600 -17.977083 10.781840 -3.510781 -63.230838 -1.067809 -6.577308 -6.209272 -12.087888 -0.985109 -3.780003 2.544319 0.400100 0.088060 -0.149770 0.281810 2.535927 -4.859935 6.639436 48.968402 -6.989734 -21.446105 -46.747195 88.366119 -42.958636 1.572972 -0.404877 -0.282800 0.288420 -0.040300 0.045580 
0.426660 17.823470 -1.047540 -14.475162 2.406854 -4.033808 -14.643342 11.817743 1.480967 9.746765 -1.088417 -10.615934 -3.992126 5.205548 11.699077 -0.221996 3.808674 3.617827 0.017580 -0.389990 0.078090 19.219333 -8.908807 5.827052 8.192741 22.508046 -39.391224 7.215717 -25.440541 91.953155 -3.183671 -15.860782 -0.241107 -0.253350 0.535970 0.040000 -5.675704 -0.211435 -8.376888 30.399657 -6.946893 11.567498 -18.628554 -2.278628 0.383356 6.461937 -8.347259 -6.740639 -16.653817 4.840315 42.099946 -0.999380 -5.614410 4.213850 -17.138520 10.578122 -3.263711 -63.328150 -0.784697 -6.863557 -5.619717 -11.988482 -1.077496 -3.796603 2.478549 0.418000 0.102800 -0.166260 0.285530 2.043245 -4.726766 6.665721 48.291988 -6.617877 -20.184472 -37.194944 84.782838 -32.668380 1.693143 -0.954285 -0.337990 0.342700 -0.037700 0.033130 
0.399130 17.759890 -1.042610 -13.564907 2.120769 -3.509892 -14.634751 11.893645 1.619014 8.555064 -1.194107 -11.645799 -3.761719 4.927353 11.235052 -0.248313 3.618817 3.705696 0.034840 -0.354740 0.111410 19.165571 -9.206554 5.520939 7.273877 20.245678 -35.814094 10.808961 -26.782424 86.950888 -3.099408 -15.501902 -0.144346 -0.226030 0.546970 0.022050 -5.625282 -0.108110 -8.285401 28.262595 -6.208432 10.924038 -18.162027 -2.135224 0.785868 6.464907 -7.461552 -6.609424 -14.507070 3.892980 40.587440 -1.431300 -4.666630 3.820070 -16.607326 10.205166 -3.023750 -62.979169 -0.675460 -7.104457 -4.873328 -11.821932 -1.131706 -3.801394 2.449333 0.404360 0.121790 -0.162340 0.305260 1.603250 -4.868706 6.536853 47.570059 -6.004783 -19.016959 -29.716382 81.060169 -24.834195 1.791337 -1.260225 -0.356020 0.369170 -0.079640 0.033300 
